<svg xmlns="http://www.w3.org/2000/svg" xmlns:xlink="http://www.w3.org/1999/xlink" width="800" zoomAndPan="magnify" viewBox="0 0 600 449.999984" height="600" preserveAspectRatio="xMidYMid meet" version="1.0"><defs><g/></defs><rect x="-60" width="720" fill="#ffffff" y="-44.999998" height="539.99998" fill-opacity="1"/><rect x="-60" width="720" fill="#ffffff" y="-44.999998" height="539.99998" fill-opacity="1"/><g fill="#01244e" fill-opacity="1"><g transform="translate(224.548822, 274.439393)"><g><path d="M 65.65625 -25.46875 C 65.65625 -17.1875 62.675781 -10.660156 56.71875 -5.890625 C 50.757812 -1.128906 42.472656 1.25 31.859375 1.25 C 22.078125 1.25 13.421875 -0.585938 5.890625 -4.265625 L 5.890625 -22.328125 C 12.078125 -19.566406 17.3125 -17.617188 21.59375 -16.484375 C 25.882812 -15.359375 29.804688 -14.796875 33.359375 -14.796875 C 37.628906 -14.796875 40.898438 -15.609375 43.171875 -17.234375 C 45.453125 -18.867188 46.59375 -21.296875 46.59375 -24.515625 C 46.59375 -26.316406 46.09375 -27.914062 45.09375 -29.3125 C 44.09375 -30.71875 42.617188 -32.066406 40.671875 -33.359375 C 38.722656 -34.660156 34.757812 -36.734375 28.78125 -39.578125 C 23.175781 -42.203125 18.972656 -44.726562 16.171875 -47.15625 C 13.378906 -49.582031 11.144531 -52.40625 9.46875 -55.625 C 7.800781 -58.84375 6.96875 -62.609375 6.96875 -66.921875 C 6.96875 -75.023438 9.710938 -81.394531 15.203125 -86.03125 C 20.703125 -90.675781 28.300781 -93 38 -93 C 42.769531 -93 47.316406 -92.4375 51.640625 -91.3125 C 55.972656 -90.1875 60.5 -88.597656 65.21875 -86.546875 L 58.953125 -71.4375 C 54.054688 -73.4375 50.007812 -74.832031 46.8125 -75.625 C 43.613281 -76.425781 40.46875 -76.828125 37.375 -76.828125 C 33.695312 -76.828125 30.875 -75.96875 28.90625 -74.25 C 26.945312 -72.539062 25.96875 -70.304688 25.96875 -67.546875 C 25.96875 -65.828125 26.363281 -64.328125 27.15625 -63.046875 C 27.945312 -61.773438 29.207031 -60.546875 30.9375 -59.359375 C 32.675781 -58.171875 36.785156 -56.03125 43.265625 -52.9375 C 51.835938 -48.832031 57.710938 -44.722656 60.890625 -40.609375 C 64.066406 -36.492188 65.65625 -31.445312 65.65625 -25.46875 Z M 65.65625 -25.46875 "/></g></g></g><g fill="#01244e" fill-opacity="1"><g transform="translate(295.289783, 274.439393)"><g><path d="M 40.078125 -53.9375 L 59.203125 -91.6875 L 80.140625 -91.6875 L 49.734375 -35.6875 L 49.734375 0 L 30.421875 0 L 30.421875 -35.0625 L 0 -91.6875 L 21.078125 -91.6875 Z M 40.078125 -53.9375 "/></g></g></g></svg>