<svg xmlns="http://www.w3.org/2000/svg" xmlns:xlink="http://www.w3.org/1999/xlink" width="800" zoomAndPan="magnify" viewBox="0 0 600 449.999984" height="600" preserveAspectRatio="xMidYMid meet" version="1.0"><defs><g/><clipPath id="39f5ec3337"><rect x="0" width="406" y="0" height="51"/></clipPath></defs><rect x="-60" width="720" fill="#ffffff" y="-44.999998" height="539.99998" fill-opacity="1"/><rect x="-60" width="720" fill="#ffffff" y="-44.999998" height="539.99998" fill-opacity="1"/><g transform="matrix(1, 0, 0, 1, 97, 199)"><g clip-path="url(#39f5ec3337)"><g fill="#000488" fill-opacity="1"><g transform="translate(0.962154, 40.366913)"><g><path d="M 24.265625 -14.796875 C 25.898438 -14.285156 27.175781 -13.425781 28.09375 -12.21875 C 29.007812 -11.007812 29.46875 -9.523438 29.46875 -7.765625 C 29.46875 -5.273438 28.5 -3.359375 26.5625 -2.015625 C 24.625 -0.671875 21.800781 0 18.09375 0 L 3.375 0 L 3.375 -28.453125 L 17.28125 -28.453125 C 20.75 -28.453125 23.410156 -27.785156 25.265625 -26.453125 C 27.117188 -25.128906 28.046875 -23.332031 28.046875 -21.0625 C 28.046875 -19.675781 27.710938 -18.441406 27.046875 -17.359375 C 26.390625 -16.273438 25.460938 -15.421875 24.265625 -14.796875 Z M 9.921875 -23.5 L 9.921875 -16.796875 L 16.46875 -16.796875 C 18.09375 -16.796875 19.320312 -17.078125 20.15625 -17.640625 C 21 -18.210938 21.421875 -19.054688 21.421875 -20.171875 C 21.421875 -21.273438 21 -22.101562 20.15625 -22.65625 C 19.320312 -23.21875 18.09375 -23.5 16.46875 -23.5 Z M 17.609375 -4.953125 C 19.335938 -4.953125 20.640625 -5.238281 21.515625 -5.8125 C 22.398438 -6.382812 22.84375 -7.265625 22.84375 -8.453125 C 22.84375 -10.816406 21.097656 -12 17.609375 -12 L 9.921875 -12 L 9.921875 -4.953125 Z M 17.609375 -4.953125 "/></g></g></g><g fill="#000488" fill-opacity="1"><g transform="translate(32.062996, 40.366913)"><g><path d="M 24.359375 -10.859375 C 24.359375 -10.773438 24.316406 -10.203125 24.234375 -9.140625 L 7.6875 -9.140625 C 7.976562 -7.785156 8.679688 -6.710938 9.796875 -5.921875 C 10.910156 -5.140625 12.289062 -4.75 13.9375 -4.75 C 15.082031 -4.75 16.09375 -4.914062 16.96875 -5.25 C 17.851562 -5.59375 18.675781 -6.132812 19.4375 -6.875 L 22.8125 -3.21875 C 20.75 -0.851562 17.738281 0.328125 13.78125 0.328125 C 11.3125 0.328125 9.128906 -0.148438 7.234375 -1.109375 C 5.335938 -2.078125 3.875 -3.414062 2.84375 -5.125 C 1.8125 -6.832031 1.296875 -8.769531 1.296875 -10.9375 C 1.296875 -13.070312 1.800781 -15 2.8125 -16.71875 C 3.832031 -18.445312 5.226562 -19.789062 7 -20.75 C 8.78125 -21.71875 10.769531 -22.203125 12.96875 -22.203125 C 15.113281 -22.203125 17.050781 -21.738281 18.78125 -20.8125 C 20.519531 -19.894531 21.882812 -18.570312 22.875 -16.84375 C 23.863281 -15.125 24.359375 -13.128906 24.359375 -10.859375 Z M 13.015625 -17.40625 C 11.578125 -17.40625 10.367188 -17 9.390625 -16.1875 C 8.410156 -15.375 7.816406 -14.257812 7.609375 -12.84375 L 18.375 -12.84375 C 18.15625 -14.226562 17.554688 -15.332031 16.578125 -16.15625 C 15.609375 -16.988281 14.421875 -17.40625 13.015625 -17.40625 Z M 13.015625 -17.40625 "/></g></g></g><g fill="#000488" fill-opacity="1"><g transform="translate(57.716108, 40.366913)"><g><path d="M 8.984375 -18.984375 C 9.742188 -20.046875 10.765625 -20.847656 12.046875 -21.390625 C 13.335938 -21.929688 14.820312 -22.203125 16.5 -22.203125 L 16.5 -16.34375 C 15.800781 -16.394531 15.328125 -16.421875 15.078125 -16.421875 C 13.265625 -16.421875 11.84375 -15.910156 10.8125 -14.890625 C 9.78125 -13.878906 9.265625 -12.359375 9.265625 -10.328125 L 9.265625 0 L 2.921875 0 L 2.921875 -21.875 L 8.984375 -21.875 Z M 8.984375 -18.984375 "/></g></g></g><g fill="#000488" fill-opacity="1"><g transform="translate(75.238284, 40.366913)"><g><path d="M 11.75 -22.203125 C 15.132812 -22.203125 17.734375 -21.394531 19.546875 -19.78125 C 21.367188 -18.164062 22.28125 -15.734375 22.28125 -12.484375 L 22.28125 0 L 16.34375 0 L 16.34375 -2.71875 C 15.15625 -0.6875 12.929688 0.328125 9.671875 0.328125 C 7.992188 0.328125 6.535156 0.046875 5.296875 -0.515625 C 4.066406 -1.085938 3.125 -1.875 2.46875 -2.875 C 1.820312 -3.882812 1.5 -5.023438 1.5 -6.296875 C 1.5 -8.328125 2.265625 -9.925781 3.796875 -11.09375 C 5.328125 -12.257812 7.691406 -12.84375 10.890625 -12.84375 L 15.9375 -12.84375 C 15.9375 -14.226562 15.515625 -15.289062 14.671875 -16.03125 C 13.835938 -16.78125 12.578125 -17.15625 10.890625 -17.15625 C 9.722656 -17.15625 8.578125 -16.972656 7.453125 -16.609375 C 6.328125 -16.242188 5.375 -15.75 4.59375 -15.125 L 2.3125 -19.5625 C 3.507812 -20.394531 4.941406 -21.039062 6.609375 -21.5 C 8.273438 -21.96875 9.988281 -22.203125 11.75 -22.203125 Z M 11.265625 -3.9375 C 12.347656 -3.9375 13.304688 -4.1875 14.140625 -4.6875 C 14.984375 -5.195312 15.582031 -5.9375 15.9375 -6.90625 L 15.9375 -9.140625 L 11.59375 -9.140625 C 8.988281 -9.140625 7.6875 -8.289062 7.6875 -6.59375 C 7.6875 -5.769531 8.003906 -5.117188 8.640625 -4.640625 C 9.273438 -4.171875 10.148438 -3.9375 11.265625 -3.9375 Z M 11.265625 -3.9375 "/></g></g></g><g fill="#000488" fill-opacity="1"><g transform="translate(100.322232, 40.366913)"><g><path d="M 16.21875 -22.203125 C 18.925781 -22.203125 21.113281 -21.382812 22.78125 -19.75 C 24.445312 -18.125 25.28125 -15.710938 25.28125 -12.515625 L 25.28125 0 L 18.953125 0 L 18.953125 -11.546875 C 18.953125 -13.273438 18.570312 -14.566406 17.8125 -15.421875 C 17.050781 -16.273438 15.953125 -16.703125 14.515625 -16.703125 C 12.910156 -16.703125 11.632812 -16.207031 10.6875 -15.21875 C 9.738281 -14.226562 9.265625 -12.757812 9.265625 -10.8125 L 9.265625 0 L 2.921875 0 L 2.921875 -21.875 L 8.984375 -21.875 L 8.984375 -19.3125 C 9.828125 -20.226562 10.867188 -20.9375 12.109375 -21.4375 C 13.359375 -21.945312 14.726562 -22.203125 16.21875 -22.203125 Z M 16.21875 -22.203125 "/></g></g></g><g fill="#000488" fill-opacity="1"><g transform="translate(128.41463, 40.366913)"><g><path d="M 25.203125 -30.171875 L 25.203125 0 L 19.15625 0 L 19.15625 -2.515625 C 17.582031 -0.617188 15.300781 0.328125 12.3125 0.328125 C 10.257812 0.328125 8.398438 -0.128906 6.734375 -1.046875 C 5.066406 -1.972656 3.753906 -3.289062 2.796875 -5 C 1.847656 -6.707031 1.375 -8.6875 1.375 -10.9375 C 1.375 -13.1875 1.847656 -15.164062 2.796875 -16.875 C 3.753906 -18.582031 5.066406 -19.894531 6.734375 -20.8125 C 8.398438 -21.738281 10.257812 -22.203125 12.3125 -22.203125 C 15.101562 -22.203125 17.285156 -21.320312 18.859375 -19.5625 L 18.859375 -30.171875 Z M 13.421875 -4.875 C 15.015625 -4.875 16.335938 -5.421875 17.390625 -6.515625 C 18.453125 -7.617188 18.984375 -9.09375 18.984375 -10.9375 C 18.984375 -12.78125 18.453125 -14.25 17.390625 -15.34375 C 16.335938 -16.445312 15.015625 -17 13.421875 -17 C 11.796875 -17 10.453125 -16.445312 9.390625 -15.34375 C 8.335938 -14.25 7.8125 -12.78125 7.8125 -10.9375 C 7.8125 -9.09375 8.335938 -7.617188 9.390625 -6.515625 C 10.453125 -5.421875 11.796875 -4.875 13.421875 -4.875 Z M 13.421875 -4.875 "/></g></g></g><g fill="#000488" fill-opacity="1"><g transform="translate(156.547668, 40.366913)"><g><path d="M 11.75 -22.203125 C 15.132812 -22.203125 17.734375 -21.394531 19.546875 -19.78125 C 21.367188 -18.164062 22.28125 -15.734375 22.28125 -12.484375 L 22.28125 0 L 16.34375 0 L 16.34375 -2.71875 C 15.15625 -0.6875 12.929688 0.328125 9.671875 0.328125 C 7.992188 0.328125 6.535156 0.046875 5.296875 -0.515625 C 4.066406 -1.085938 3.125 -1.875 2.46875 -2.875 C 1.820312 -3.882812 1.5 -5.023438 1.5 -6.296875 C 1.5 -8.328125 2.265625 -9.925781 3.796875 -11.09375 C 5.328125 -12.257812 7.691406 -12.84375 10.890625 -12.84375 L 15.9375 -12.84375 C 15.9375 -14.226562 15.515625 -15.289062 14.671875 -16.03125 C 13.835938 -16.78125 12.578125 -17.15625 10.890625 -17.15625 C 9.722656 -17.15625 8.578125 -16.972656 7.453125 -16.609375 C 6.328125 -16.242188 5.375 -15.75 4.59375 -15.125 L 2.3125 -19.5625 C 3.507812 -20.394531 4.941406 -21.039062 6.609375 -21.5 C 8.273438 -21.96875 9.988281 -22.203125 11.75 -22.203125 Z M 11.265625 -3.9375 C 12.347656 -3.9375 13.304688 -4.1875 14.140625 -4.6875 C 14.984375 -5.195312 15.582031 -5.9375 15.9375 -6.90625 L 15.9375 -9.140625 L 11.59375 -9.140625 C 8.988281 -9.140625 7.6875 -8.289062 7.6875 -6.59375 C 7.6875 -5.769531 8.003906 -5.117188 8.640625 -4.640625 C 9.273438 -4.171875 10.148438 -3.9375 11.265625 -3.9375 Z M 11.265625 -3.9375 "/></g></g></g><g fill="#000488" fill-opacity="1"><g transform="translate(181.631617, 40.366913)"><g/></g></g><g fill="#000488" fill-opacity="1"><g transform="translate(193.136895, 40.366913)"><g><path d="M 9.265625 -23.09375 L 0.15625 -23.09375 L 0.15625 -28.453125 L 24.96875 -28.453125 L 24.96875 -23.09375 L 15.859375 -23.09375 L 15.859375 0 L 9.265625 0 Z M 9.265625 -23.09375 "/></g></g></g><g fill="#000488" fill-opacity="1"><g transform="translate(218.261503, 40.366913)"><g><path d="M 24.359375 -10.859375 C 24.359375 -10.773438 24.316406 -10.203125 24.234375 -9.140625 L 7.6875 -9.140625 C 7.976562 -7.785156 8.679688 -6.710938 9.796875 -5.921875 C 10.910156 -5.140625 12.289062 -4.75 13.9375 -4.75 C 15.082031 -4.75 16.09375 -4.914062 16.96875 -5.25 C 17.851562 -5.59375 18.675781 -6.132812 19.4375 -6.875 L 22.8125 -3.21875 C 20.75 -0.851562 17.738281 0.328125 13.78125 0.328125 C 11.3125 0.328125 9.128906 -0.148438 7.234375 -1.109375 C 5.335938 -2.078125 3.875 -3.414062 2.84375 -5.125 C 1.8125 -6.832031 1.296875 -8.769531 1.296875 -10.9375 C 1.296875 -13.070312 1.800781 -15 2.8125 -16.71875 C 3.832031 -18.445312 5.226562 -19.789062 7 -20.75 C 8.78125 -21.71875 10.769531 -22.203125 12.96875 -22.203125 C 15.113281 -22.203125 17.050781 -21.738281 18.78125 -20.8125 C 20.519531 -19.894531 21.882812 -18.570312 22.875 -16.84375 C 23.863281 -15.125 24.359375 -13.128906 24.359375 -10.859375 Z M 13.015625 -17.40625 C 11.578125 -17.40625 10.367188 -17 9.390625 -16.1875 C 8.410156 -15.375 7.816406 -14.257812 7.609375 -12.84375 L 18.375 -12.84375 C 18.15625 -14.226562 17.554688 -15.332031 16.578125 -16.15625 C 15.609375 -16.988281 14.421875 -17.40625 13.015625 -17.40625 Z M 13.015625 -17.40625 "/></g></g></g><g fill="#000488" fill-opacity="1"><g transform="translate(243.91461, 40.366913)"><g><path d="M 12.3125 -8.578125 L 9.265625 -5.5625 L 9.265625 0 L 2.921875 0 L 2.921875 -30.171875 L 9.265625 -30.171875 L 9.265625 -13.09375 L 18.546875 -21.875 L 26.09375 -21.875 L 17 -12.609375 L 26.921875 0 L 19.234375 0 Z M 12.3125 -8.578125 "/></g></g></g><g fill="#000488" fill-opacity="1"><g transform="translate(270.746712, 40.366913)"><g><path d="M 16.21875 -22.203125 C 18.925781 -22.203125 21.113281 -21.382812 22.78125 -19.75 C 24.445312 -18.125 25.28125 -15.710938 25.28125 -12.515625 L 25.28125 0 L 18.953125 0 L 18.953125 -11.546875 C 18.953125 -13.273438 18.570312 -14.566406 17.8125 -15.421875 C 17.050781 -16.273438 15.953125 -16.703125 14.515625 -16.703125 C 12.910156 -16.703125 11.632812 -16.207031 10.6875 -15.21875 C 9.738281 -14.226562 9.265625 -12.757812 9.265625 -10.8125 L 9.265625 0 L 2.921875 0 L 2.921875 -21.875 L 8.984375 -21.875 L 8.984375 -19.3125 C 9.828125 -20.226562 10.867188 -20.9375 12.109375 -21.4375 C 13.359375 -21.945312 14.726562 -22.203125 16.21875 -22.203125 Z M 16.21875 -22.203125 "/></g></g></g><g fill="#000488" fill-opacity="1"><g transform="translate(298.83911, 40.366913)"><g><path d="M 13.328125 0.328125 C 11.023438 0.328125 8.957031 -0.148438 7.125 -1.109375 C 5.300781 -2.078125 3.875 -3.414062 2.84375 -5.125 C 1.8125 -6.832031 1.296875 -8.769531 1.296875 -10.9375 C 1.296875 -13.101562 1.8125 -15.039062 2.84375 -16.75 C 3.875 -18.457031 5.300781 -19.789062 7.125 -20.75 C 8.957031 -21.71875 11.023438 -22.203125 13.328125 -22.203125 C 15.640625 -22.203125 17.703125 -21.71875 19.515625 -20.75 C 21.328125 -19.789062 22.75 -18.457031 23.78125 -16.75 C 24.8125 -15.039062 25.328125 -13.101562 25.328125 -10.9375 C 25.328125 -8.769531 24.8125 -6.832031 23.78125 -5.125 C 22.75 -3.414062 21.328125 -2.078125 19.515625 -1.109375 C 17.703125 -0.148438 15.640625 0.328125 13.328125 0.328125 Z M 13.328125 -4.875 C 14.960938 -4.875 16.300781 -5.421875 17.34375 -6.515625 C 18.382812 -7.617188 18.90625 -9.09375 18.90625 -10.9375 C 18.90625 -12.78125 18.382812 -14.25 17.34375 -15.34375 C 16.300781 -16.445312 14.960938 -17 13.328125 -17 C 11.703125 -17 10.359375 -16.445312 9.296875 -15.34375 C 8.242188 -14.25 7.71875 -12.78125 7.71875 -10.9375 C 7.71875 -9.09375 8.242188 -7.617188 9.296875 -6.515625 C 10.359375 -5.421875 11.703125 -4.875 13.328125 -4.875 Z M 13.328125 -4.875 "/></g></g></g><g fill="#000488" fill-opacity="1"><g transform="translate(325.467933, 40.366913)"><g><path d="M 2.921875 -30.171875 L 9.265625 -30.171875 L 9.265625 0 L 2.921875 0 Z M 2.921875 -30.171875 "/></g></g></g><g fill="#000488" fill-opacity="1"><g transform="translate(337.704989, 40.366913)"><g><path d="M 13.328125 0.328125 C 11.023438 0.328125 8.957031 -0.148438 7.125 -1.109375 C 5.300781 -2.078125 3.875 -3.414062 2.84375 -5.125 C 1.8125 -6.832031 1.296875 -8.769531 1.296875 -10.9375 C 1.296875 -13.101562 1.8125 -15.039062 2.84375 -16.75 C 3.875 -18.457031 5.300781 -19.789062 7.125 -20.75 C 8.957031 -21.71875 11.023438 -22.203125 13.328125 -22.203125 C 15.640625 -22.203125 17.703125 -21.71875 19.515625 -20.75 C 21.328125 -19.789062 22.75 -18.457031 23.78125 -16.75 C 24.8125 -15.039062 25.328125 -13.101562 25.328125 -10.9375 C 25.328125 -8.769531 24.8125 -6.832031 23.78125 -5.125 C 22.75 -3.414062 21.328125 -2.078125 19.515625 -1.109375 C 17.703125 -0.148438 15.640625 0.328125 13.328125 0.328125 Z M 13.328125 -4.875 C 14.960938 -4.875 16.300781 -5.421875 17.34375 -6.515625 C 18.382812 -7.617188 18.90625 -9.09375 18.90625 -10.9375 C 18.90625 -12.78125 18.382812 -14.25 17.34375 -15.34375 C 16.300781 -16.445312 14.960938 -17 13.328125 -17 C 11.703125 -17 10.359375 -16.445312 9.296875 -15.34375 C 8.242188 -14.25 7.71875 -12.78125 7.71875 -10.9375 C 7.71875 -9.09375 8.242188 -7.617188 9.296875 -6.515625 C 10.359375 -5.421875 11.703125 -4.875 13.328125 -4.875 Z M 13.328125 -4.875 "/></g></g></g><g fill="#000488" fill-opacity="1"><g transform="translate(364.333831, 40.366913)"><g><path d="M 25.484375 -21.875 L 25.484375 -3.65625 C 25.484375 0.351562 24.441406 3.332031 22.359375 5.28125 C 20.273438 7.238281 17.226562 8.21875 13.21875 8.21875 C 11.101562 8.21875 9.09375 7.957031 7.1875 7.4375 C 5.289062 6.925781 3.722656 6.179688 2.484375 5.203125 L 5 0.65625 C 5.925781 1.40625 7.09375 2.003906 8.5 2.453125 C 9.90625 2.898438 11.3125 3.125 12.71875 3.125 C 14.914062 3.125 16.535156 2.628906 17.578125 1.640625 C 18.628906 0.648438 19.15625 -0.84375 19.15625 -2.84375 L 19.15625 -3.78125 C 17.5 -1.96875 15.191406 -1.0625 12.234375 -1.0625 C 10.234375 -1.0625 8.398438 -1.5 6.734375 -2.375 C 5.066406 -3.257812 3.742188 -4.5 2.765625 -6.09375 C 1.785156 -7.695312 1.296875 -9.539062 1.296875 -11.625 C 1.296875 -13.71875 1.785156 -15.5625 2.765625 -17.15625 C 3.742188 -18.757812 5.066406 -20 6.734375 -20.875 C 8.398438 -21.757812 10.234375 -22.203125 12.234375 -22.203125 C 15.410156 -22.203125 17.820312 -21.15625 19.46875 -19.0625 L 19.46875 -21.875 Z M 13.5 -6.265625 C 15.175781 -6.265625 16.550781 -6.757812 17.625 -7.75 C 18.695312 -8.738281 19.234375 -10.03125 19.234375 -11.625 C 19.234375 -13.226562 18.695312 -14.523438 17.625 -15.515625 C 16.550781 -16.503906 15.175781 -17 13.5 -17 C 11.820312 -17 10.4375 -16.503906 9.34375 -15.515625 C 8.257812 -14.523438 7.71875 -13.226562 7.71875 -11.625 C 7.71875 -10.03125 8.257812 -8.738281 9.34375 -7.75 C 10.4375 -6.757812 11.820312 -6.265625 13.5 -6.265625 Z M 13.5 -6.265625 "/></g></g></g><g fill="#000488" fill-opacity="1"><g transform="translate(392.792126, 40.366913)"><g><path d="M 2.921875 -21.875 L 9.265625 -21.875 L 9.265625 0 L 2.921875 0 Z M 6.09375 -24.921875 C 4.9375 -24.921875 3.988281 -25.257812 3.25 -25.9375 C 2.519531 -26.613281 2.15625 -27.453125 2.15625 -28.453125 C 2.15625 -29.460938 2.519531 -30.304688 3.25 -30.984375 C 3.988281 -31.660156 4.9375 -32 6.09375 -32 C 7.257812 -32 8.207031 -31.671875 8.9375 -31.015625 C 9.675781 -30.367188 10.046875 -29.554688 10.046875 -28.578125 C 10.046875 -27.523438 9.675781 -26.648438 8.9375 -25.953125 C 8.207031 -25.265625 7.257812 -24.921875 6.09375 -24.921875 Z M 6.09375 -24.921875 "/></g></g></g></g></g></svg>