<svg xmlns="http://www.w3.org/2000/svg" xmlns:xlink="http://www.w3.org/1999/xlink" width="800" zoomAndPan="magnify" viewBox="0 0 600 449.999984" height="600" preserveAspectRatio="xMidYMid meet" version="1.0"><defs><g/><clipPath id="e748446660"><rect x="0" width="334" y="0" height="86"/></clipPath></defs><rect x="-60" width="720" fill="#ffffff" y="-44.999998" height="539.99998" fill-opacity="1"/><rect x="-60" width="720" fill="#ffffff" y="-44.999998" height="539.99998" fill-opacity="1"/><g transform="matrix(1, 0, 0, 1, 133, 182)"><g clip-path="url(#e748446660)"><g fill="#f44538" fill-opacity="1"><g transform="translate(0.68519, 67.258244)"><g><path d="M 31.921875 -12.375 C 31.921875 -8.351562 30.472656 -5.179688 27.578125 -2.859375 C 24.679688 -0.546875 20.648438 0.609375 15.484375 0.609375 C 10.734375 0.609375 6.523438 -0.285156 2.859375 -2.078125 L 2.859375 -10.859375 C 5.867188 -9.515625 8.414062 -8.566406 10.5 -8.015625 C 12.582031 -7.472656 14.488281 -7.203125 16.21875 -7.203125 C 18.289062 -7.203125 19.878906 -7.597656 20.984375 -8.390625 C 22.097656 -9.179688 22.65625 -10.359375 22.65625 -11.921875 C 22.65625 -12.796875 22.410156 -13.570312 21.921875 -14.25 C 21.429688 -14.9375 20.710938 -15.59375 19.765625 -16.21875 C 18.828125 -16.851562 16.90625 -17.859375 14 -19.234375 C 11.269531 -20.515625 9.222656 -21.742188 7.859375 -22.921875 C 6.503906 -24.109375 5.421875 -25.484375 4.609375 -27.046875 C 3.796875 -28.609375 3.390625 -30.4375 3.390625 -32.53125 C 3.390625 -36.476562 4.722656 -39.578125 7.390625 -41.828125 C 10.066406 -44.085938 13.765625 -45.21875 18.484375 -45.21875 C 20.796875 -45.21875 23.003906 -44.941406 25.109375 -44.390625 C 27.210938 -43.847656 29.414062 -43.078125 31.71875 -42.078125 L 28.671875 -34.734375 C 26.285156 -35.710938 24.316406 -36.394531 22.765625 -36.78125 C 21.210938 -37.164062 19.679688 -37.359375 18.171875 -37.359375 C 16.378906 -37.359375 15.003906 -36.941406 14.046875 -36.109375 C 13.097656 -35.273438 12.625 -34.1875 12.625 -32.84375 C 12.625 -32.007812 12.816406 -31.28125 13.203125 -30.65625 C 13.585938 -30.039062 14.203125 -29.441406 15.046875 -28.859375 C 15.890625 -28.285156 17.890625 -27.242188 21.046875 -25.734375 C 25.210938 -23.742188 28.066406 -21.742188 29.609375 -19.734375 C 31.148438 -17.734375 31.921875 -15.28125 31.921875 -12.375 Z M 31.921875 -12.375 "/></g></g></g><g fill="#f44538" fill-opacity="1"><g transform="translate(35.081111, 67.258244)"><g><path d="M 4.484375 -42.90625 C 4.484375 -45.9375 6.171875 -47.453125 9.546875 -47.453125 C 12.921875 -47.453125 14.609375 -45.9375 14.609375 -42.90625 C 14.609375 -41.457031 14.1875 -40.332031 13.34375 -39.53125 C 12.5 -38.726562 11.234375 -38.328125 9.546875 -38.328125 C 6.171875 -38.328125 4.484375 -39.851562 4.484375 -42.90625 Z M 14.1875 0 L 4.875 0 L 4.875 -34.09375 L 14.1875 -34.09375 Z M 14.1875 0 "/></g></g></g><g fill="#f44538" fill-opacity="1"><g transform="translate(54.139135, 67.258244)"><g><path d="M 36.34375 0 L 27.046875 0 L 27.046875 -19.90625 C 27.046875 -22.375 26.609375 -24.222656 25.734375 -25.453125 C 24.859375 -26.679688 23.46875 -27.296875 21.5625 -27.296875 C 18.957031 -27.296875 17.078125 -26.425781 15.921875 -24.6875 C 14.765625 -22.945312 14.1875 -20.066406 14.1875 -16.046875 L 14.1875 0 L 4.875 0 L 4.875 -34.09375 L 11.984375 -34.09375 L 13.234375 -29.734375 L 13.75 -29.734375 C 14.789062 -31.378906 16.21875 -32.625 18.03125 -33.46875 C 19.851562 -34.3125 21.925781 -34.734375 24.25 -34.734375 C 28.207031 -34.734375 31.210938 -33.660156 33.265625 -31.515625 C 35.316406 -29.367188 36.34375 -26.273438 36.34375 -22.234375 Z M 36.34375 0 "/></g></g></g><g fill="#f44538" fill-opacity="1"><g transform="translate(95.182495, 67.258244)"><g><path d="M 26.53125 0 L 24.734375 -4.640625 L 24.484375 -4.640625 C 22.921875 -2.660156 21.3125 -1.289062 19.65625 -0.53125 C 18 0.226562 15.835938 0.609375 13.171875 0.609375 C 9.898438 0.609375 7.320312 -0.320312 5.4375 -2.1875 C 3.5625 -4.0625 2.625 -6.726562 2.625 -10.1875 C 2.625 -13.800781 3.890625 -16.46875 6.421875 -18.1875 C 8.953125 -19.90625 12.769531 -20.859375 17.875 -21.046875 L 23.78125 -21.21875 L 23.78125 -22.71875 C 23.78125 -26.175781 22.015625 -27.90625 18.484375 -27.90625 C 15.753906 -27.90625 12.550781 -27.082031 8.875 -25.4375 L 5.796875 -31.71875 C 9.710938 -33.769531 14.0625 -34.796875 18.84375 -34.796875 C 23.414062 -34.796875 26.921875 -33.796875 29.359375 -31.796875 C 31.804688 -29.804688 33.03125 -26.78125 33.03125 -22.71875 L 33.03125 0 Z M 23.78125 -15.796875 L 20.1875 -15.671875 C 17.476562 -15.585938 15.460938 -15.097656 14.140625 -14.203125 C 12.828125 -13.316406 12.171875 -11.957031 12.171875 -10.125 C 12.171875 -7.5 13.675781 -6.1875 16.6875 -6.1875 C 18.832031 -6.1875 20.550781 -6.804688 21.84375 -8.046875 C 23.132812 -9.285156 23.78125 -10.929688 23.78125 -12.984375 Z M 23.78125 -15.796875 "/></g></g></g><g fill="#f44538" fill-opacity="1"><g transform="translate(132.902137, 67.258244)"><g><path d="M 23.90625 -34.734375 C 25.164062 -34.734375 26.210938 -34.640625 27.046875 -34.453125 L 26.34375 -25.734375 C 25.59375 -25.941406 24.679688 -26.046875 23.609375 -26.046875 C 20.640625 -26.046875 18.328125 -25.28125 16.671875 -23.75 C 15.015625 -22.226562 14.1875 -20.09375 14.1875 -17.34375 L 14.1875 0 L 4.875 0 L 4.875 -34.09375 L 11.921875 -34.09375 L 13.296875 -28.359375 L 13.75 -28.359375 C 14.8125 -30.273438 16.238281 -31.816406 18.03125 -32.984375 C 19.832031 -34.148438 21.789062 -34.734375 23.90625 -34.734375 Z M 23.90625 -34.734375 "/></g></g></g><g fill="#f44538" fill-opacity="1"><g transform="translate(161.260476, 67.258244)"><g/></g></g><g fill="#f44538" fill-opacity="1"><g transform="translate(177.482666, 67.258244)"><g><path d="M 49.03125 0 L 38.265625 0 L 32.234375 -23.421875 C 32.003906 -24.253906 31.617188 -25.972656 31.078125 -28.578125 C 30.546875 -31.191406 30.238281 -32.945312 30.15625 -33.84375 C 30.03125 -32.75 29.722656 -30.988281 29.234375 -28.5625 C 28.753906 -26.132812 28.378906 -24.398438 28.109375 -23.359375 L 22.109375 0 L 11.375 0 L 0 -44.578125 L 9.296875 -44.578125 L 15 -20.25 C 16 -15.757812 16.722656 -11.863281 17.171875 -8.5625 C 17.285156 -9.726562 17.5625 -11.523438 18 -13.953125 C 18.4375 -16.378906 18.847656 -18.265625 19.234375 -19.609375 L 25.734375 -44.578125 L 34.671875 -44.578125 L 41.171875 -19.609375 C 41.453125 -18.492188 41.804688 -16.785156 42.234375 -14.484375 C 42.660156 -12.191406 42.988281 -10.21875 43.21875 -8.5625 C 43.414062 -10.15625 43.738281 -12.132812 44.1875 -14.5 C 44.632812 -16.863281 45.039062 -18.78125 45.40625 -20.25 L 51.078125 -44.578125 L 60.375 -44.578125 Z M 49.03125 0 "/></g></g></g><g fill="#f44538" fill-opacity="1"><g transform="translate(237.858485, 67.258244)"><g><path d="M 26.53125 0 L 24.734375 -4.640625 L 24.484375 -4.640625 C 22.921875 -2.660156 21.3125 -1.289062 19.65625 -0.53125 C 18 0.226562 15.835938 0.609375 13.171875 0.609375 C 9.898438 0.609375 7.320312 -0.320312 5.4375 -2.1875 C 3.5625 -4.0625 2.625 -6.726562 2.625 -10.1875 C 2.625 -13.800781 3.890625 -16.46875 6.421875 -18.1875 C 8.953125 -19.90625 12.769531 -20.859375 17.875 -21.046875 L 23.78125 -21.21875 L 23.78125 -22.71875 C 23.78125 -26.175781 22.015625 -27.90625 18.484375 -27.90625 C 15.753906 -27.90625 12.550781 -27.082031 8.875 -25.4375 L 5.796875 -31.71875 C 9.710938 -33.769531 14.0625 -34.796875 18.84375 -34.796875 C 23.414062 -34.796875 26.921875 -33.796875 29.359375 -31.796875 C 31.804688 -29.804688 33.03125 -26.78125 33.03125 -22.71875 L 33.03125 0 Z M 23.78125 -15.796875 L 20.1875 -15.671875 C 17.476562 -15.585938 15.460938 -15.097656 14.140625 -14.203125 C 12.828125 -13.316406 12.171875 -11.957031 12.171875 -10.125 C 12.171875 -7.5 13.675781 -6.1875 16.6875 -6.1875 C 18.832031 -6.1875 20.550781 -6.804688 21.84375 -8.046875 C 23.132812 -9.285156 23.78125 -10.929688 23.78125 -12.984375 Z M 23.78125 -15.796875 "/></g></g></g><g fill="#f44538" fill-opacity="1"><g transform="translate(275.578139, 67.258244)"><g><path d="M 2.140625 15 C -0.242188 15 -2.289062 14.742188 -4 14.234375 L -4 6.921875 C -2.570312 7.304688 -1.117188 7.5 0.359375 7.5 C 1.929688 7.5 3.078125 7.0625 3.796875 6.1875 C 4.515625 5.3125 4.875 4.019531 4.875 2.3125 L 4.875 -34.09375 L 14.1875 -34.09375 L 14.1875 3.6875 C 14.1875 7.3125 13.132812 10.101562 11.03125 12.0625 C 8.9375 14.019531 5.972656 15 2.140625 15 Z M 4.484375 -42.90625 C 4.484375 -45.9375 6.171875 -47.453125 9.546875 -47.453125 C 12.921875 -47.453125 14.609375 -45.9375 14.609375 -42.90625 C 14.609375 -41.457031 14.1875 -40.332031 13.34375 -39.53125 C 12.5 -38.726562 11.234375 -38.328125 9.546875 -38.328125 C 6.171875 -38.328125 4.484375 -39.851562 4.484375 -42.90625 Z M 4.484375 -42.90625 "/></g></g></g><g fill="#f44538" fill-opacity="1"><g transform="translate(294.63615, 67.258244)"><g><path d="M 12.296875 -17.109375 C 12.296875 -13.734375 12.847656 -11.179688 13.953125 -9.453125 C 15.054688 -7.722656 16.859375 -6.859375 19.359375 -6.859375 C 21.835938 -6.859375 23.617188 -7.71875 24.703125 -9.4375 C 25.796875 -11.15625 26.34375 -13.710938 26.34375 -17.109375 C 26.34375 -20.484375 25.789062 -23.015625 24.6875 -24.703125 C 23.59375 -26.390625 21.796875 -27.234375 19.296875 -27.234375 C 16.816406 -27.234375 15.03125 -26.394531 13.9375 -24.71875 C 12.84375 -23.039062 12.296875 -20.503906 12.296875 -17.109375 Z M 35.859375 -17.109375 C 35.859375 -11.554688 34.394531 -7.210938 31.46875 -4.078125 C 28.539062 -0.953125 24.460938 0.609375 19.234375 0.609375 C 15.960938 0.609375 13.078125 -0.101562 10.578125 -1.53125 C 8.078125 -2.96875 6.15625 -5.023438 4.8125 -7.703125 C 3.476562 -10.390625 2.8125 -13.523438 2.8125 -17.109375 C 2.8125 -22.679688 4.265625 -27.007812 7.171875 -30.09375 C 10.078125 -33.1875 14.160156 -34.734375 19.421875 -34.734375 C 22.691406 -34.734375 25.578125 -34.019531 28.078125 -32.59375 C 30.585938 -31.175781 32.507812 -29.132812 33.84375 -26.46875 C 35.1875 -23.800781 35.859375 -20.679688 35.859375 -17.109375 Z M 35.859375 -17.109375 "/></g></g></g></g></g></svg>