<svg xmlns="http://www.w3.org/2000/svg" xmlns:xlink="http://www.w3.org/1999/xlink" width="800" zoomAndPan="magnify" viewBox="0 0 600 449.999984" height="600" preserveAspectRatio="xMidYMid meet" version="1.0"><defs><g/><clipPath id="e0bbe9220c"><rect x="0" width="244" y="0" height="72"/></clipPath></defs><rect x="-60" width="720" fill="#ffffff" y="-44.999998" height="539.99998" fill-opacity="1"/><rect x="-60" width="720" fill="#ffffff" y="-44.999998" height="539.99998" fill-opacity="1"/><g transform="matrix(1, 0, 0, 1, 178, 189)"><g clip-path="url(#e0bbe9220c)"><g fill="#02816a" fill-opacity="1"><g transform="translate(0.724455, 56.159016)"><g><path d="M 35.53125 0 L 27.59375 0 L 27.59375 -16.21875 L 12.703125 -16.21875 L 12.703125 0 L 4.734375 0 L 4.734375 -37.59375 L 12.703125 -37.59375 L 12.703125 -22.859375 L 27.59375 -22.859375 L 27.59375 -37.59375 L 35.53125 -37.59375 Z M 35.53125 0 "/></g></g><g transform="translate(41.016782, 56.159016)"><g><path d="M 10.359375 -14.421875 C 10.359375 -11.578125 10.828125 -9.425781 11.765625 -7.96875 C 12.703125 -6.507812 14.222656 -5.78125 16.328125 -5.78125 C 18.421875 -5.78125 19.925781 -6.503906 20.84375 -7.953125 C 21.757812 -9.398438 22.21875 -11.554688 22.21875 -14.421875 C 22.21875 -17.265625 21.753906 -19.394531 20.828125 -20.8125 C 19.898438 -22.238281 18.382812 -22.953125 16.28125 -22.953125 C 14.1875 -22.953125 12.675781 -22.242188 11.75 -20.828125 C 10.820312 -19.421875 10.359375 -17.285156 10.359375 -14.421875 Z M 30.234375 -14.421875 C 30.234375 -9.742188 29 -6.082031 26.53125 -3.4375 C 24.0625 -0.800781 20.625 0.515625 16.21875 0.515625 C 13.457031 0.515625 11.023438 -0.0859375 8.921875 -1.296875 C 6.816406 -2.503906 5.195312 -4.238281 4.0625 -6.5 C 2.925781 -8.769531 2.359375 -11.410156 2.359375 -14.421875 C 2.359375 -19.117188 3.582031 -22.769531 6.03125 -25.375 C 8.488281 -27.976562 11.9375 -29.28125 16.375 -29.28125 C 19.132812 -29.28125 21.566406 -28.679688 23.671875 -27.484375 C 25.785156 -26.285156 27.40625 -24.5625 28.53125 -22.3125 C 29.664062 -20.070312 30.234375 -17.441406 30.234375 -14.421875 Z M 30.234375 -14.421875 "/></g></g><g transform="translate(73.620911, 56.159016)"><g><path d="M 29.84375 0 L 22.015625 0 L 22.015625 -16.796875 C 22.015625 -18.867188 21.664062 -20.421875 20.96875 -21.453125 C 20.269531 -22.492188 19.175781 -23.015625 17.6875 -23.015625 C 15.6875 -23.015625 14.226562 -22.273438 13.3125 -20.796875 C 12.40625 -19.328125 11.953125 -16.90625 11.953125 -13.53125 L 11.953125 0 L 4.109375 0 L 4.109375 -28.75 L 10.109375 -28.75 L 11.15625 -25.0625 L 11.59375 -25.0625 C 12.363281 -26.382812 13.476562 -27.414062 14.9375 -28.15625 C 16.394531 -28.90625 18.066406 -29.28125 19.953125 -29.28125 C 24.253906 -29.28125 27.164062 -27.875 28.6875 -25.0625 L 29.390625 -25.0625 C 30.160156 -26.40625 31.296875 -27.441406 32.796875 -28.171875 C 34.296875 -28.910156 35.988281 -29.28125 37.875 -29.28125 C 41.125 -29.28125 43.582031 -28.441406 45.25 -26.765625 C 46.925781 -25.097656 47.765625 -22.425781 47.765625 -18.75 L 47.765625 0 L 39.90625 0 L 39.90625 -16.796875 C 39.90625 -18.867188 39.554688 -20.421875 38.859375 -21.453125 C 38.171875 -22.492188 37.078125 -23.015625 35.578125 -23.015625 C 33.660156 -23.015625 32.222656 -22.328125 31.265625 -20.953125 C 30.316406 -19.578125 29.84375 -17.398438 29.84375 -14.421875 Z M 29.84375 0 "/></g></g><g transform="translate(125.329825, 56.159016)"><g><path d="M 16.015625 -23.703125 C 14.359375 -23.703125 13.054688 -23.175781 12.109375 -22.125 C 11.171875 -21.070312 10.628906 -19.578125 10.484375 -17.640625 L 21.5 -17.640625 C 21.457031 -19.578125 20.945312 -21.070312 19.96875 -22.125 C 19 -23.175781 17.679688 -23.703125 16.015625 -23.703125 Z M 17.125 0.515625 C 12.5 0.515625 8.878906 -0.757812 6.265625 -3.3125 C 3.660156 -5.863281 2.359375 -9.484375 2.359375 -14.171875 C 2.359375 -18.984375 3.5625 -22.703125 5.96875 -25.328125 C 8.382812 -27.960938 11.71875 -29.28125 15.96875 -29.28125 C 20.03125 -29.28125 23.191406 -28.125 25.453125 -25.8125 C 27.710938 -23.5 28.84375 -20.300781 28.84375 -16.21875 L 28.84375 -12.421875 L 10.3125 -12.421875 C 10.394531 -10.191406 11.050781 -8.453125 12.28125 -7.203125 C 13.519531 -5.953125 15.253906 -5.328125 17.484375 -5.328125 C 19.210938 -5.328125 20.847656 -5.503906 22.390625 -5.859375 C 23.929688 -6.222656 25.546875 -6.796875 27.234375 -7.578125 L 27.234375 -1.515625 C 25.859375 -0.828125 24.390625 -0.316406 22.828125 0.015625 C 21.265625 0.347656 19.363281 0.515625 17.125 0.515625 Z M 17.125 0.515625 "/></g></g><g transform="translate(156.442598, 56.159016)"><g><path d="M 27.75 0 L 25.53125 -10.046875 L 22.546875 -22.75 L 22.375 -22.75 L 17.125 0 L 8.6875 0 L 0.515625 -28.75 L 8.328125 -28.75 L 11.640625 -16.015625 C 12.171875 -13.734375 12.710938 -10.585938 13.265625 -6.578125 L 13.421875 -6.578125 C 13.492188 -7.878906 13.796875 -9.945312 14.328125 -12.78125 L 14.734375 -14.96875 L 18.28125 -28.75 L 26.921875 -28.75 L 30.28125 -14.96875 C 30.351562 -14.582031 30.460938 -14.019531 30.609375 -13.28125 C 30.753906 -12.550781 30.894531 -11.769531 31.03125 -10.9375 C 31.164062 -10.101562 31.289062 -9.285156 31.40625 -8.484375 C 31.519531 -7.691406 31.582031 -7.054688 31.59375 -6.578125 L 31.75 -6.578125 C 31.90625 -7.816406 32.179688 -9.507812 32.578125 -11.65625 C 32.972656 -13.8125 33.253906 -15.265625 33.421875 -16.015625 L 36.875 -28.75 L 44.5625 -28.75 L 36.28125 0 Z M 27.75 0 "/></g></g><g transform="translate(201.517549, 56.159016)"><g><path d="M 3.78125 -36.171875 C 3.78125 -38.722656 5.203125 -40 8.046875 -40 C 10.890625 -40 12.3125 -38.722656 12.3125 -36.171875 C 12.3125 -34.953125 11.957031 -34.003906 11.25 -33.328125 C 10.539062 -32.648438 9.472656 -32.3125 8.046875 -32.3125 C 5.203125 -32.3125 3.78125 -33.597656 3.78125 -36.171875 Z M 11.953125 0 L 4.109375 0 L 4.109375 -28.75 L 11.953125 -28.75 Z M 11.953125 0 "/></g></g><g transform="translate(217.588196, 56.159016)"><g><path d="M 24.109375 0 L 1.421875 0 L 1.421875 -4.625 L 14.734375 -22.75 L 2.21875 -22.75 L 2.21875 -28.75 L 23.65625 -28.75 L 23.65625 -23.65625 L 10.703125 -5.984375 L 24.109375 -5.984375 Z M 24.109375 0 "/></g></g></g></g></g></svg>