<svg xmlns="http://www.w3.org/2000/svg" xmlns:xlink="http://www.w3.org/1999/xlink" width="800" zoomAndPan="magnify" viewBox="0 0 600 449.999984" height="600" preserveAspectRatio="xMidYMid meet" version="1.0"><defs><g/><clipPath id="8e51b0789a"><path d="M 0.199219 15 L 46 15 L 46 69 L 0.199219 69 Z M 0.199219 15 " clip-rule="nonzero"/></clipPath><clipPath id="35a7afec89"><rect x="0" width="182" y="0" height="149"/></clipPath></defs><rect x="-60" width="720" fill="#ffffff" y="-44.999998" height="539.99998" fill-opacity="1"/><rect x="-60" width="720" fill="#ffffff" y="-44.999998" height="539.99998" fill-opacity="1"/><g transform="matrix(1, 0, 0, 1, 211, 150)"><g clip-path="url(#35a7afec89)"><g clip-path="url(#8e51b0789a)"><g fill="#004aad" fill-opacity="1"><g transform="translate(0.313622, 71.744903)"><g><path d="M 16.53125 -3.15625 L 16.53125 -45.796875 L 0.265625 -45.796875 L 0.265625 -56.734375 L 45.078125 -56.734375 L 45.078125 -45.796875 L 29.1875 -45.796875 L 29.1875 -3.15625 Z M 16.53125 -3.15625 "/></g></g></g></g><g fill="#004aad" fill-opacity="1"><g transform="translate(48.648789, 71.744903)"><g><path d="M 15.09375 -42.015625 C 16.71875 -42.367188 18.492188 -42.546875 20.421875 -42.546875 C 20.535156 -42.546875 20.65625 -42.546875 20.78125 -42.546875 C 25.238281 -42.546875 28.941406 -41.519531 31.890625 -39.46875 C 34.835938 -37.425781 36.828125 -34.421875 37.859375 -30.453125 C 38.398438 -28.335938 38.671875 -25.988281 38.671875 -23.40625 C 38.671875 -22.375 38.5625 -20.65625 38.34375 -18.25 C 38.132812 -15.84375 37.457031 -13.460938 36.3125 -11.109375 C 34.625 -7.734375 32.125 -5.414062 28.8125 -4.15625 C 25.5 -2.894531 22.488281 -2.265625 19.78125 -2.265625 C 18.039062 -2.265625 16.296875 -2.441406 14.546875 -2.796875 C 5.992188 -4.660156 1.71875 -10.984375 1.71875 -21.765625 C 1.71875 -22.429688 1.75 -23.097656 1.8125 -23.765625 C 2.289062 -34.117188 6.71875 -40.203125 15.09375 -42.015625 Z M 23.578125 -31.265625 C 22.671875 -31.742188 21.84375 -32 21.09375 -32.03125 C 20.34375 -32.0625 19.90625 -32.078125 19.78125 -32.078125 C 18.695312 -32.078125 17.796875 -31.894531 17.078125 -31.53125 C 16.472656 -31.289062 15.804688 -30.773438 15.078125 -29.984375 C 14.359375 -29.203125 13.878906 -28.453125 13.640625 -27.734375 C 13.097656 -26.285156 12.828125 -24.691406 12.828125 -22.953125 C 12.828125 -22.160156 12.890625 -21.347656 13.015625 -20.515625 C 13.316406 -17.984375 14.035156 -16.144531 15.171875 -15 C 16.316406 -13.851562 17.972656 -13.25 20.140625 -13.1875 C 25.023438 -13.1875 27.46875 -16.289062 27.46875 -22.5 C 27.46875 -24.90625 27.164062 -26.785156 26.5625 -28.140625 C 25.957031 -29.492188 24.960938 -30.535156 23.578125 -31.265625 Z M 23.578125 -31.265625 "/></g></g></g><g fill="#004aad" fill-opacity="1"><g transform="translate(91.743919, 71.744903)"><g><path d="M 2.703125 -3.15625 L 2.703125 -59.265625 L 14.71875 -59.265625 L 14.71875 -26.65625 L 28.09375 -41.828125 L 41.015625 -41.734375 L 25.65625 -24.03125 L 41.921875 -3.25 L 41.921875 -3.15625 L 28.546875 -3.15625 L 17.171875 -17.796875 L 14.71875 -15.359375 L 14.71875 -3.15625 Z M 2.703125 -3.15625 "/></g></g></g><g fill="#004aad" fill-opacity="1"><g transform="translate(137.36872, 71.744903)"><g><path d="M 15.09375 -42.015625 C 16.71875 -42.367188 18.492188 -42.546875 20.421875 -42.546875 C 20.535156 -42.546875 20.65625 -42.546875 20.78125 -42.546875 C 25.238281 -42.546875 28.941406 -41.519531 31.890625 -39.46875 C 34.835938 -37.425781 36.828125 -34.421875 37.859375 -30.453125 C 38.398438 -28.335938 38.671875 -25.988281 38.671875 -23.40625 C 38.671875 -22.375 38.5625 -20.65625 38.34375 -18.25 C 38.132812 -15.84375 37.457031 -13.460938 36.3125 -11.109375 C 34.625 -7.734375 32.125 -5.414062 28.8125 -4.15625 C 25.5 -2.894531 22.488281 -2.265625 19.78125 -2.265625 C 18.039062 -2.265625 16.296875 -2.441406 14.546875 -2.796875 C 5.992188 -4.660156 1.71875 -10.984375 1.71875 -21.765625 C 1.71875 -22.429688 1.75 -23.097656 1.8125 -23.765625 C 2.289062 -34.117188 6.71875 -40.203125 15.09375 -42.015625 Z M 23.578125 -31.265625 C 22.671875 -31.742188 21.84375 -32 21.09375 -32.03125 C 20.34375 -32.0625 19.90625 -32.078125 19.78125 -32.078125 C 18.695312 -32.078125 17.796875 -31.894531 17.078125 -31.53125 C 16.472656 -31.289062 15.804688 -30.773438 15.078125 -29.984375 C 14.359375 -29.203125 13.878906 -28.453125 13.640625 -27.734375 C 13.097656 -26.285156 12.828125 -24.691406 12.828125 -22.953125 C 12.828125 -22.160156 12.890625 -21.347656 13.015625 -20.515625 C 13.316406 -17.984375 14.035156 -16.144531 15.171875 -15 C 16.316406 -13.851562 17.972656 -13.25 20.140625 -13.1875 C 25.023438 -13.1875 27.46875 -16.289062 27.46875 -22.5 C 27.46875 -24.90625 27.164062 -26.785156 26.5625 -28.140625 C 25.957031 -29.492188 24.960938 -30.535156 23.578125 -31.265625 Z M 23.578125 -31.265625 "/></g></g></g><g fill="#004aad" fill-opacity="1"><g transform="translate(5.467502, 139.016589)"><g><path d="M 3.609375 -3.15625 L 3.609375 -56.828125 L 15.546875 -56.828125 C 22.347656 -56.828125 27.054688 -56.691406 29.671875 -56.421875 C 32.296875 -56.148438 34.601562 -55.5625 36.59375 -54.65625 C 39.601562 -53.269531 41.707031 -51.070312 42.90625 -48.0625 C 43.445312 -46.738281 43.71875 -44.476562 43.71875 -41.28125 C 43.71875 -39.050781 43.65625 -37.585938 43.53125 -36.890625 C 43.414062 -36.203125 43.117188 -35.347656 42.640625 -34.328125 C 42.035156 -33.003906 41.023438 -31.617188 39.609375 -30.171875 C 38.203125 -28.722656 36.804688 -27.671875 35.421875 -27.015625 L 33.609375 -26.109375 L 34.234375 -25.109375 C 36.460938 -21.617188 39.035156 -17.328125 41.953125 -12.234375 C 44.878906 -7.148438 46.34375 -4.335938 46.34375 -3.796875 C 46.34375 -3.492188 45.992188 -3.3125 45.296875 -3.25 C 44.609375 -3.1875 42.789062 -3.15625 39.84375 -3.15625 L 33.34375 -3.15625 L 31.984375 -5.421875 C 31.015625 -6.804688 29.398438 -9.5 27.140625 -13.5 C 24.890625 -17.507812 23.34375 -20.296875 22.5 -21.859375 L 21.328125 -24.296875 L 15.984375 -24.296875 L 15.984375 -3.15625 Z M 28.28125 -45.625 C 27.613281 -45.925781 26.890625 -46.132812 26.109375 -46.25 C 25.328125 -46.375 23.757812 -46.46875 21.40625 -46.53125 L 15.984375 -46.625 L 15.984375 -34.234375 L 18.515625 -34.234375 C 20.085938 -34.234375 21.804688 -34.429688 23.671875 -34.828125 C 25.535156 -35.222656 27.007812 -35.691406 28.09375 -36.234375 C 30.144531 -37.253906 31.171875 -38.878906 31.171875 -41.109375 C 31.171875 -42.191406 30.957031 -43.0625 30.53125 -43.71875 C 30.113281 -44.382812 29.363281 -45.019531 28.28125 -45.625 Z M 28.28125 -45.625 "/></g></g></g><g fill="#004aad" fill-opacity="1"><g transform="translate(54.52543, 139.016589)"><g><path d="M 1.984375 -28.1875 L 1.984375 -41.65625 L 13.90625 -41.65625 L 14 -29.546875 C 14.0625 -24.003906 14.132812 -20.523438 14.21875 -19.109375 C 14.3125 -17.691406 14.507812 -16.679688 14.8125 -16.078125 C 15.539062 -14.628906 16.398438 -13.832031 17.390625 -13.6875 C 18.378906 -13.539062 19 -13.46875 19.25 -13.46875 C 20.632812 -13.46875 21.925781 -13.914062 23.125 -14.8125 C 24.03125 -15.476562 24.617188 -16.082031 24.890625 -16.625 C 25.160156 -17.164062 25.335938 -18.113281 25.421875 -19.46875 C 25.515625 -20.820312 25.5625 -22.007812 25.5625 -23.03125 C 25.5625 -24.664062 25.503906 -26.625 25.390625 -28.90625 C 25.328125 -32.40625 25.296875 -35.117188 25.296875 -37.046875 C 25.296875 -38.972656 25.328125 -40.113281 25.390625 -40.46875 L 25.65625 -41.65625 L 37.578125 -41.65625 L 37.578125 -23.765625 C 37.578125 -11.835938 37.519531 -5.421875 37.40625 -4.515625 L 37.125 -3.15625 L 25.5625 -3.15625 L 25.5625 -8.765625 L 23.21875 -6.421875 C 21.53125 -4.734375 20.097656 -3.617188 18.921875 -3.078125 C 17.753906 -2.535156 16.113281 -2.265625 14 -2.265625 C 11.707031 -2.265625 9.992188 -2.535156 8.859375 -3.078125 C 7.109375 -3.859375 5.734375 -4.957031 4.734375 -6.375 C 3.742188 -7.789062 3.007812 -9.703125 2.53125 -12.109375 C 2.164062 -13.910156 1.984375 -19.269531 1.984375 -28.1875 Z M 1.984375 -28.1875 "/></g></g></g><g fill="#004aad" fill-opacity="1"><g transform="translate(97.16884, 139.016589)"><g><path d="M 11.921875 -41.828125 C 13.671875 -42.304688 15.507812 -42.546875 17.4375 -42.546875 C 19.363281 -42.546875 21.410156 -42.304688 23.578125 -41.828125 C 25.203125 -41.523438 26.859375 -41 28.546875 -40.25 C 30.234375 -39.5 31.078125 -38.972656 31.078125 -38.671875 C 31.078125 -38.484375 30.6875 -37.242188 29.90625 -34.953125 C 29.125 -32.671875 28.671875 -31.5 28.546875 -31.4375 C 28.546875 -31.4375 28.515625 -31.4375 28.453125 -31.4375 C 28.210938 -31.4375 27.097656 -31.738281 25.109375 -32.34375 C 23.242188 -32.882812 21.664062 -33.257812 20.375 -33.46875 C 19.082031 -33.675781 18.160156 -33.78125 17.609375 -33.78125 C 16.828125 -33.726562 16.226562 -33.582031 15.8125 -33.34375 C 15.144531 -32.914062 14.707031 -32.503906 14.5 -32.109375 C 14.289062 -31.722656 14.1875 -31.410156 14.1875 -31.171875 C 14.1875 -30.929688 14.242188 -30.691406 14.359375 -30.453125 C 14.597656 -29.785156 15.109375 -29.269531 15.890625 -28.90625 C 16.679688 -28.550781 18.160156 -28.101562 20.328125 -27.5625 C 25.566406 -26.175781 29.085938 -24.625 30.890625 -22.90625 C 32.703125 -21.1875 33.640625 -18.488281 33.703125 -14.8125 C 33.640625 -12.644531 33.304688 -10.898438 32.703125 -9.578125 C 31.015625 -5.960938 27.789062 -3.671875 23.03125 -2.703125 C 21.40625 -2.410156 19.78125 -2.265625 18.15625 -2.265625 C 13.695312 -2.316406 9.09375 -3.457031 4.34375 -5.6875 C 2.832031 -6.414062 2.078125 -6.898438 2.078125 -7.140625 C 2.078125 -7.316406 2.523438 -8.472656 3.421875 -10.609375 C 4.328125 -12.753906 4.84375 -13.882812 4.96875 -14 C 4.96875 -14 5 -14 5.0625 -14 C 5.539062 -14 7.285156 -13.640625 10.296875 -12.921875 C 13.304688 -12.140625 15.71875 -11.75 17.53125 -11.75 C 19.21875 -11.75 20.390625 -12.078125 21.046875 -12.734375 C 21.648438 -13.273438 21.953125 -13.878906 21.953125 -14.546875 C 21.953125 -14.722656 21.90625 -15.066406 21.8125 -15.578125 C 21.726562 -16.097656 21.203125 -16.597656 20.234375 -17.078125 C 19.578125 -17.378906 17.800781 -17.890625 14.90625 -18.609375 C 10.332031 -19.816406 7.226562 -21.171875 5.59375 -22.671875 C 3.789062 -24.359375 2.769531 -26.828125 2.53125 -30.078125 C 2.53125 -30.378906 2.53125 -30.710938 2.53125 -31.078125 C 2.53125 -33.722656 3.238281 -35.9375 4.65625 -37.71875 C 6.070312 -39.5 8.492188 -40.867188 11.921875 -41.828125 Z M 11.921875 -41.828125 "/></g></g></g><g fill="#004aad" fill-opacity="1"><g transform="translate(135.746709, 139.016589)"><g><path d="M 2.703125 -59.453125 L 14.28125 -59.453125 L 14.28125 -3.15625 L 2.703125 -3.15625 Z M 2.703125 -59.453125 "/></g></g></g><g fill="#004aad" fill-opacity="1"><g transform="translate(155.532727, 139.016589)"><g><path d="M 2.703125 -41.65625 L 14.28125 -41.65625 L 14.28125 -3.15625 L 2.703125 -3.15625 Z M 2.703125 -59.53125 L 14.28125 -59.53125 L 14.28125 -50.234375 L 2.703125 -50.234375 Z M 2.703125 -59.53125 "/></g></g></g></g></g></svg>