<svg xmlns="http://www.w3.org/2000/svg" xmlns:xlink="http://www.w3.org/1999/xlink" width="800" zoomAndPan="magnify" viewBox="0 0 600 449.999984" height="600" preserveAspectRatio="xMidYMid meet" version="1.0"><defs><g/><clipPath id="9ef776a8fe"><rect x="0" width="444" y="0" height="102"/></clipPath></defs><rect x="-60" width="720" fill="#ffffff" y="-44.999998" height="539.99998" fill-opacity="1"/><rect x="-60" width="720" fill="#ffffff" y="-44.999998" height="539.99998" fill-opacity="1"/><g transform="matrix(1, 0, 0, 1, 78, 174)"><g clip-path="url(#9ef776a8fe)"><g fill="#117818" fill-opacity="1"><g transform="translate(0.77657, 80.73758)"><g><path d="M 54.078125 -55.59375 C 55.398438 -55.59375 56.550781 -55.128906 57.53125 -54.203125 C 58.507812 -53.273438 59 -52.125 59 -50.75 L 59 -4.84375 C 59 -3.46875 58.546875 -2.316406 57.640625 -1.390625 C 56.742188 -0.460938 55.554688 0 54.078125 0 C 52.597656 0 51.394531 -0.445312 50.46875 -1.34375 C 49.539062 -2.25 49.078125 -3.414062 49.078125 -4.84375 L 49.078125 -36.796875 L 36 -16.8125 C 35.46875 -16.175781 34.859375 -15.660156 34.171875 -15.265625 C 33.484375 -14.867188 32.769531 -14.695312 32.03125 -14.75 C 31.34375 -14.695312 30.65625 -14.867188 29.96875 -15.265625 C 29.28125 -15.660156 28.675781 -16.175781 28.15625 -16.8125 L 15.0625 -37.5 L 15.0625 -4.84375 C 15.0625 -3.414062 14.640625 -2.25 13.796875 -1.34375 C 12.953125 -0.445312 11.84375 0 10.46875 0 C 9.144531 0 8.0625 -0.460938 7.21875 -1.390625 C 6.375 -2.316406 5.953125 -3.46875 5.953125 -4.84375 L 5.953125 -50.75 C 5.953125 -52.070312 6.4375 -53.207031 7.40625 -54.15625 C 8.382812 -55.113281 9.5625 -55.59375 10.9375 -55.59375 C 11.726562 -55.59375 12.519531 -55.390625 13.3125 -54.984375 C 14.113281 -54.585938 14.722656 -54.078125 15.140625 -53.453125 L 32.4375 -26.875 L 50.1875 -53.453125 C 50.613281 -54.078125 51.179688 -54.585938 51.890625 -54.984375 C 52.609375 -55.390625 53.335938 -55.59375 54.078125 -55.59375 Z M 54.078125 -55.59375 "/></g></g></g><g fill="#117818" fill-opacity="1"><g transform="translate(65.710538, 80.73758)"><g><path d="M 36.640625 -42.421875 C 38.015625 -42.421875 39.148438 -41.957031 40.046875 -41.03125 C 40.941406 -40.101562 41.390625 -38.957031 41.390625 -37.59375 L 41.390625 -17.4375 C 41.390625 -11.726562 39.816406 -7.257812 36.671875 -4.03125 C 33.523438 -0.8125 29.046875 0.796875 23.234375 0.796875 C 17.421875 0.796875 12.953125 -0.8125 9.828125 -4.03125 C 6.710938 -7.257812 5.15625 -11.726562 5.15625 -17.4375 L 5.15625 -37.59375 C 5.15625 -38.957031 5.601562 -40.101562 6.5 -41.03125 C 7.394531 -41.957031 8.53125 -42.421875 9.90625 -42.421875 C 11.28125 -42.421875 12.414062 -41.957031 13.3125 -41.03125 C 14.21875 -40.101562 14.671875 -38.957031 14.671875 -37.59375 L 14.671875 -17.4375 C 14.671875 -14.21875 15.382812 -11.828125 16.8125 -10.265625 C 18.238281 -8.703125 20.378906 -7.921875 23.234375 -7.921875 C 26.140625 -7.921875 28.304688 -8.703125 29.734375 -10.265625 C 31.160156 -11.828125 31.875 -14.21875 31.875 -17.4375 L 31.875 -37.59375 C 31.875 -38.957031 32.320312 -40.101562 33.21875 -41.03125 C 34.125 -41.957031 35.265625 -42.421875 36.640625 -42.421875 Z M 36.640625 -42.421875 "/></g></g></g><g fill="#117818" fill-opacity="1"><g transform="translate(112.250522, 80.73758)"><g><path d="M 2.703125 -6.578125 C 2.222656 -7.210938 1.984375 -8.003906 1.984375 -8.953125 C 1.984375 -10.328125 2.671875 -11.492188 4.046875 -12.453125 C 4.785156 -12.921875 5.550781 -13.15625 6.34375 -13.15625 C 7.457031 -13.15625 8.515625 -12.65625 9.515625 -11.65625 C 11.097656 -10.019531 12.75 -8.800781 14.46875 -8 C 16.1875 -7.207031 18.265625 -6.8125 20.703125 -6.8125 C 24.816406 -6.976562 26.875 -8.539062 26.875 -11.5 C 26.875 -13.03125 26.171875 -14.191406 24.765625 -14.984375 C 23.367188 -15.773438 21.191406 -16.566406 18.234375 -17.359375 C 15.171875 -18.210938 12.671875 -19.0625 10.734375 -19.90625 C 8.804688 -20.75 7.140625 -22.03125 5.734375 -23.75 C 4.335938 -25.46875 3.640625 -27.78125 3.640625 -30.6875 C 3.640625 -33.226562 4.367188 -35.4375 5.828125 -37.3125 C 7.285156 -39.1875 9.1875 -40.640625 11.53125 -41.671875 C 13.882812 -42.703125 16.382812 -43.21875 19.03125 -43.21875 C 21.726562 -43.21875 24.421875 -42.710938 27.109375 -41.703125 C 29.804688 -40.703125 31.925781 -39.222656 33.46875 -37.265625 C 34.15625 -36.421875 34.5 -35.472656 34.5 -34.421875 C 34.5 -33.203125 33.992188 -32.195312 32.984375 -31.40625 C 32.242188 -30.820312 31.398438 -30.53125 30.453125 -30.53125 C 29.285156 -30.53125 28.332031 -30.898438 27.59375 -31.640625 C 26.644531 -32.804688 25.414062 -33.734375 23.90625 -34.421875 C 22.394531 -35.109375 20.691406 -35.453125 18.796875 -35.453125 C 14.773438 -35.453125 12.765625 -33.992188 12.765625 -31.078125 C 12.765625 -29.921875 13.132812 -28.984375 13.875 -28.265625 C 14.613281 -27.554688 15.550781 -27.003906 16.6875 -26.609375 C 17.820312 -26.210938 19.421875 -25.722656 21.484375 -25.140625 C 24.335938 -24.347656 26.71875 -23.523438 28.625 -22.671875 C 30.53125 -21.828125 32.144531 -20.53125 33.46875 -18.78125 C 34.789062 -17.039062 35.453125 -14.742188 35.453125 -11.890625 C 35.453125 -9.304688 34.679688 -7.046875 33.140625 -5.109375 C 31.609375 -3.179688 29.640625 -1.710938 27.234375 -0.703125 C 24.828125 0.296875 22.359375 0.796875 19.828125 0.796875 C 16.335938 0.796875 13.082031 0.210938 10.0625 -0.953125 C 7.050781 -2.117188 4.597656 -3.992188 2.703125 -6.578125 Z M 2.703125 -6.578125 "/></g></g></g><g fill="#117818" fill-opacity="1"><g transform="translate(150.465644, 80.73758)"><g><path d="M 39.484375 -43.21875 C 40.859375 -43.21875 41.992188 -42.765625 42.890625 -41.859375 C 43.796875 -40.960938 44.25 -39.800781 44.25 -38.375 L 44.25 -4.84375 C 44.25 -3.46875 43.796875 -2.316406 42.890625 -1.390625 C 41.992188 -0.460938 40.859375 0 39.484375 0 C 38.109375 0 36.984375 -0.445312 36.109375 -1.34375 C 35.242188 -2.25 34.785156 -3.382812 34.734375 -4.75 C 33.410156 -3.21875 31.625 -1.910156 29.375 -0.828125 C 27.132812 0.253906 24.769531 0.796875 22.28125 0.796875 C 18.632812 0.796875 15.328125 -0.140625 12.359375 -2.015625 C 9.398438 -3.898438 7.0625 -6.503906 5.34375 -9.828125 C 3.632812 -13.160156 2.78125 -16.941406 2.78125 -21.171875 C 2.78125 -25.398438 3.625 -29.191406 5.3125 -32.546875 C 7 -35.910156 9.3125 -38.53125 12.25 -40.40625 C 15.1875 -42.28125 18.425781 -43.21875 21.96875 -43.21875 C 24.5 -43.21875 26.875 -42.753906 29.09375 -41.828125 C 31.320312 -40.898438 33.203125 -39.722656 34.734375 -38.296875 L 34.734375 -38.375 C 34.734375 -39.75 35.179688 -40.898438 36.078125 -41.828125 C 36.972656 -42.753906 38.109375 -43.21875 39.484375 -43.21875 Z M 23.46875 -7.921875 C 26.90625 -7.921875 29.707031 -9.175781 31.875 -11.6875 C 34.039062 -14.207031 35.125 -17.367188 35.125 -21.171875 C 35.125 -24.972656 34.039062 -28.144531 31.875 -30.6875 C 29.707031 -33.226562 26.90625 -34.5 23.46875 -34.5 C 20.082031 -34.5 17.304688 -33.226562 15.140625 -30.6875 C 12.972656 -28.144531 11.890625 -24.972656 11.890625 -21.171875 C 11.890625 -17.367188 12.957031 -14.207031 15.09375 -11.6875 C 17.238281 -9.175781 20.03125 -7.921875 23.46875 -7.921875 Z M 23.46875 -7.921875 "/></g></g></g><g fill="#117818" fill-opacity="1"><g transform="translate(199.859864, 80.73758)"><g><path d="M 27.125 -43.21875 C 30.769531 -43.21875 34.070312 -42.28125 37.03125 -40.40625 C 39.988281 -38.53125 42.328125 -35.925781 44.046875 -32.59375 C 45.765625 -29.257812 46.625 -25.476562 46.625 -21.25 C 46.625 -17.019531 45.773438 -13.226562 44.078125 -9.875 C 42.390625 -6.519531 40.078125 -3.898438 37.140625 -2.015625 C 34.210938 -0.140625 30.976562 0.796875 27.4375 0.796875 C 24.894531 0.796875 22.5 0.28125 20.25 -0.75 C 18.007812 -1.78125 16.148438 -3.035156 14.671875 -4.515625 L 14.671875 -4.046875 C 14.671875 -2.671875 14.21875 -1.519531 13.3125 -0.59375 C 12.414062 0.332031 11.28125 0.796875 9.90625 0.796875 C 8.53125 0.796875 7.394531 0.347656 6.5 -0.546875 C 5.601562 -1.453125 5.15625 -2.617188 5.15625 -4.046875 L 5.15625 -53.84375 C 5.15625 -55.21875 5.601562 -56.363281 6.5 -57.28125 C 7.394531 -58.207031 8.53125 -58.671875 9.90625 -58.671875 C 11.28125 -58.671875 12.414062 -58.207031 13.3125 -57.28125 C 14.21875 -56.363281 14.671875 -55.21875 14.671875 -53.84375 L 14.671875 -37.265625 C 15.941406 -38.847656 17.710938 -40.234375 19.984375 -41.421875 C 22.253906 -42.617188 24.632812 -43.21875 27.125 -43.21875 Z M 25.9375 -7.921875 C 29.3125 -7.921875 32.082031 -9.191406 34.25 -11.734375 C 36.414062 -14.273438 37.5 -17.445312 37.5 -21.25 C 37.5 -25.050781 36.425781 -28.207031 34.28125 -30.71875 C 32.144531 -33.238281 29.363281 -34.5 25.9375 -34.5 C 22.5 -34.5 19.691406 -33.238281 17.515625 -30.71875 C 15.347656 -28.207031 14.265625 -25.050781 14.265625 -21.25 C 14.265625 -17.445312 15.347656 -14.273438 17.515625 -11.734375 C 19.691406 -9.191406 22.5 -7.921875 25.9375 -7.921875 Z M 25.9375 -7.921875 "/></g></g></g><g fill="#117818" fill-opacity="1"><g transform="translate(249.254083, 80.73758)"><g><path d="M 39.484375 -43.21875 C 40.859375 -43.21875 41.992188 -42.765625 42.890625 -41.859375 C 43.796875 -40.960938 44.25 -39.800781 44.25 -38.375 L 44.25 -4.84375 C 44.25 -3.46875 43.796875 -2.316406 42.890625 -1.390625 C 41.992188 -0.460938 40.859375 0 39.484375 0 C 38.109375 0 36.984375 -0.445312 36.109375 -1.34375 C 35.242188 -2.25 34.785156 -3.382812 34.734375 -4.75 C 33.410156 -3.21875 31.625 -1.910156 29.375 -0.828125 C 27.132812 0.253906 24.769531 0.796875 22.28125 0.796875 C 18.632812 0.796875 15.328125 -0.140625 12.359375 -2.015625 C 9.398438 -3.898438 7.0625 -6.503906 5.34375 -9.828125 C 3.632812 -13.160156 2.78125 -16.941406 2.78125 -21.171875 C 2.78125 -25.398438 3.625 -29.191406 5.3125 -32.546875 C 7 -35.910156 9.3125 -38.53125 12.25 -40.40625 C 15.1875 -42.28125 18.425781 -43.21875 21.96875 -43.21875 C 24.5 -43.21875 26.875 -42.753906 29.09375 -41.828125 C 31.320312 -40.898438 33.203125 -39.722656 34.734375 -38.296875 L 34.734375 -38.375 C 34.734375 -39.75 35.179688 -40.898438 36.078125 -41.828125 C 36.972656 -42.753906 38.109375 -43.21875 39.484375 -43.21875 Z M 23.46875 -7.921875 C 26.90625 -7.921875 29.707031 -9.175781 31.875 -11.6875 C 34.039062 -14.207031 35.125 -17.367188 35.125 -21.171875 C 35.125 -24.972656 34.039062 -28.144531 31.875 -30.6875 C 29.707031 -33.226562 26.90625 -34.5 23.46875 -34.5 C 20.082031 -34.5 17.304688 -33.226562 15.140625 -30.6875 C 12.972656 -28.144531 11.890625 -24.972656 11.890625 -21.171875 C 11.890625 -17.367188 12.957031 -14.207031 15.09375 -11.6875 C 17.238281 -9.175781 20.03125 -7.921875 23.46875 -7.921875 Z M 23.46875 -7.921875 "/></g></g></g><g fill="#117818" fill-opacity="1"><g transform="translate(298.648303, 80.73758)"><g><path d="M 39.484375 -42.421875 C 40.859375 -42.421875 41.992188 -41.972656 42.890625 -41.078125 C 43.796875 -40.179688 44.25 -39.019531 44.25 -37.59375 L 44.25 11.015625 C 44.25 12.390625 43.796875 13.539062 42.890625 14.46875 C 41.992188 15.394531 40.859375 15.859375 39.484375 15.859375 C 38.109375 15.859375 36.972656 15.394531 36.078125 14.46875 C 35.179688 13.539062 34.734375 12.390625 34.734375 11.015625 L 34.734375 -4.671875 C 33.410156 -3.191406 31.625 -1.910156 29.375 -0.828125 C 27.132812 0.253906 24.769531 0.796875 22.28125 0.796875 C 18.632812 0.796875 15.328125 -0.140625 12.359375 -2.015625 C 9.398438 -3.898438 7.0625 -6.503906 5.34375 -9.828125 C 3.632812 -13.160156 2.78125 -16.941406 2.78125 -21.171875 C 2.78125 -25.398438 3.625 -29.191406 5.3125 -32.546875 C 7 -35.910156 9.3125 -38.53125 12.25 -40.40625 C 15.1875 -42.28125 18.425781 -43.21875 21.96875 -43.21875 C 24.550781 -43.21875 26.953125 -42.738281 29.171875 -41.78125 C 31.398438 -40.832031 33.253906 -39.644531 34.734375 -38.21875 C 34.890625 -39.4375 35.40625 -40.441406 36.28125 -41.234375 C 37.15625 -42.023438 38.222656 -42.421875 39.484375 -42.421875 Z M 23.46875 -7.921875 C 26.90625 -7.921875 29.707031 -9.175781 31.875 -11.6875 C 34.039062 -14.207031 35.125 -17.367188 35.125 -21.171875 C 35.125 -24.972656 34.039062 -28.144531 31.875 -30.6875 C 29.707031 -33.226562 26.90625 -34.5 23.46875 -34.5 C 20.082031 -34.5 17.304688 -33.226562 15.140625 -30.6875 C 12.972656 -28.144531 11.890625 -24.972656 11.890625 -21.171875 C 11.890625 -17.367188 12.957031 -14.207031 15.09375 -11.6875 C 17.238281 -9.175781 20.03125 -7.921875 23.46875 -7.921875 Z M 23.46875 -7.921875 "/></g></g></g><g fill="#117818" fill-opacity="1"><g transform="translate(348.042523, 80.73758)"><g><path d="M 45.90625 -21.171875 C 45.90625 -16.941406 44.953125 -13.144531 43.046875 -9.78125 C 41.148438 -6.425781 38.550781 -3.820312 35.25 -1.96875 C 31.945312 -0.125 28.3125 0.796875 24.34375 0.796875 C 20.320312 0.796875 16.671875 -0.125 13.390625 -1.96875 C 10.117188 -3.820312 7.53125 -6.425781 5.625 -9.78125 C 3.726562 -13.144531 2.78125 -16.941406 2.78125 -21.171875 C 2.78125 -25.398438 3.726562 -29.191406 5.625 -32.546875 C 7.53125 -35.910156 10.117188 -38.53125 13.390625 -40.40625 C 16.671875 -42.28125 20.320312 -43.21875 24.34375 -43.21875 C 28.3125 -43.21875 31.945312 -42.28125 35.25 -40.40625 C 38.550781 -38.53125 41.148438 -35.910156 43.046875 -32.546875 C 44.953125 -29.191406 45.90625 -25.398438 45.90625 -21.171875 Z M 36.390625 -21.171875 C 36.390625 -23.765625 35.847656 -26.078125 34.765625 -28.109375 C 33.679688 -30.140625 32.226562 -31.710938 30.40625 -32.828125 C 28.582031 -33.941406 26.5625 -34.5 24.34375 -34.5 C 22.125 -34.5 20.101562 -33.941406 18.28125 -32.828125 C 16.457031 -31.710938 15.003906 -30.140625 13.921875 -28.109375 C 12.835938 -26.078125 12.296875 -23.765625 12.296875 -21.171875 C 12.296875 -18.578125 12.835938 -16.273438 13.921875 -14.265625 C 15.003906 -12.265625 16.457031 -10.707031 18.28125 -9.59375 C 20.101562 -8.476562 22.125 -7.921875 24.34375 -7.921875 C 26.5625 -7.921875 28.582031 -8.476562 30.40625 -9.59375 C 32.226562 -10.707031 33.679688 -12.265625 34.765625 -14.265625 C 35.847656 -16.273438 36.390625 -18.578125 36.390625 -21.171875 Z M 36.390625 -21.171875 "/></g></g></g><g fill="#117818" fill-opacity="1"><g transform="translate(396.72319, 80.73758)"><g><path d="M 27.4375 -43.21875 C 32.664062 -43.21875 36.285156 -41.617188 38.296875 -38.421875 C 40.304688 -35.222656 41.3125 -30.796875 41.3125 -25.140625 L 41.3125 -4.84375 C 41.3125 -3.46875 40.863281 -2.316406 39.96875 -1.390625 C 39.070312 -0.460938 37.9375 0 36.5625 0 C 35.1875 0 34.046875 -0.460938 33.140625 -1.390625 C 32.242188 -2.316406 31.796875 -3.46875 31.796875 -4.84375 L 31.796875 -25.140625 C 31.796875 -28.046875 31.226562 -30.332031 30.09375 -32 C 28.957031 -33.664062 26.960938 -34.5 24.109375 -34.5 C 21.148438 -34.5 18.835938 -33.613281 17.171875 -31.84375 C 15.503906 -30.070312 14.671875 -27.835938 14.671875 -25.140625 L 14.671875 -4.84375 C 14.671875 -3.46875 14.21875 -2.316406 13.3125 -1.390625 C 12.414062 -0.460938 11.28125 0 9.90625 0 C 8.53125 0 7.394531 -0.460938 6.5 -1.390625 C 5.601562 -2.316406 5.15625 -3.46875 5.15625 -4.84375 L 5.15625 -53.84375 C 5.15625 -55.21875 5.601562 -56.363281 6.5 -57.28125 C 7.394531 -58.207031 8.53125 -58.671875 9.90625 -58.671875 C 11.28125 -58.671875 12.414062 -58.207031 13.3125 -57.28125 C 14.21875 -56.363281 14.671875 -55.21875 14.671875 -53.84375 L 14.671875 -36.3125 C 16.097656 -38.21875 17.90625 -39.84375 20.09375 -41.1875 C 22.289062 -42.539062 24.738281 -43.21875 27.4375 -43.21875 Z M 27.4375 -43.21875 "/></g></g></g></g></g></svg>