<svg xmlns="http://www.w3.org/2000/svg" xmlns:xlink="http://www.w3.org/1999/xlink" width="800" zoomAndPan="magnify" viewBox="0 0 600 449.999984" height="600" preserveAspectRatio="xMidYMid meet" version="1.0"><defs><g/><clipPath id="4b419cf7a3"><rect x="0" width="383" y="0" height="109"/></clipPath></defs><rect x="-60" width="720" fill="#ffffff" y="-44.999998" height="539.99998" fill-opacity="1"/><rect x="-60" width="720" fill="#ffffff" y="-44.999998" height="539.99998" fill-opacity="1"/><g transform="matrix(1, 0, 0, 1, 111, 170)"><g clip-path="url(#4b419cf7a3)"><g fill="#04a1c4" fill-opacity="1"><g transform="translate(1.353817, 74.631105)"><g><path d="M 12.96875 0 L 16.15625 -9.09375 L 32.125 -9.09375 L 35.453125 0.671875 L 47.609375 -0.546875 L 30.359375 -46.171875 L 18 -46.171875 L 0.671875 0 Z M 23.96875 -31.375 L 28.59375 -18.8125 L 19.5625 -18.8125 Z M 23.96875 -31.375 "/></g></g></g><g fill="#04a1c4" fill-opacity="1"><g transform="translate(54.73335, 74.631105)"><g><path d="M 2.234375 -2.859375 C 4.003906 -1.816406 6.367188 -0.929688 9.328125 -0.203125 C 12.296875 0.515625 14.984375 0.875 17.390625 0.875 C 21.097656 0.875 24.34375 0.289062 27.125 -0.875 C 29.914062 -2.050781 32.054688 -3.660156 33.546875 -5.703125 C 35.035156 -7.742188 35.78125 -10.078125 35.78125 -12.703125 C 35.78125 -15.054688 35.113281 -17.171875 33.78125 -19.046875 C 32.445312 -20.921875 30.828125 -22.550781 28.921875 -23.9375 C 27.023438 -25.320312 24.648438 -26.828125 21.796875 -28.453125 L 19.359375 -29.8125 C 17.722656 -30.664062 16.550781 -31.351562 15.84375 -31.875 C 15.144531 -32.394531 14.796875 -33 14.796875 -33.6875 C 14.796875 -34.59375 15.210938 -35.359375 16.046875 -35.984375 C 16.890625 -36.617188 17.992188 -36.9375 19.359375 -36.9375 C 20.890625 -36.9375 22.300781 -36.800781 23.59375 -36.53125 C 24.882812 -36.257812 26.726562 -35.71875 29.125 -34.90625 L 32.796875 -43.25 C 31.035156 -44.425781 28.921875 -45.351562 26.453125 -46.03125 C 23.984375 -46.71875 21.570312 -47.0625 19.21875 -47.0625 C 15.78125 -47.0625 12.769531 -46.492188 10.1875 -45.359375 C 7.601562 -44.222656 5.597656 -42.648438 4.171875 -40.640625 C 2.742188 -38.628906 2.03125 -36.351562 2.03125 -33.8125 C 2.03125 -31.414062 2.707031 -29.265625 4.0625 -27.359375 C 5.425781 -25.460938 6.96875 -23.914062 8.6875 -22.71875 C 10.40625 -21.519531 12.804688 -20.015625 15.890625 -18.203125 L 18 -16.96875 C 19.757812 -15.9375 21.035156 -15.132812 21.828125 -14.5625 C 22.617188 -14 23.015625 -13.421875 23.015625 -12.828125 C 23.015625 -11.921875 22.472656 -11.09375 21.390625 -10.34375 C 20.304688 -9.601562 18.859375 -9.234375 17.046875 -9.234375 C 15.410156 -9.234375 13.519531 -9.535156 11.375 -10.140625 C 9.226562 -10.753906 7.539062 -11.425781 6.3125 -12.15625 Z M 2.234375 -2.859375 "/></g></g></g><g fill="#04a1c4" fill-opacity="1"><g transform="translate(96.975163, 74.631105)"><g><path d="M 5.4375 -46.171875 L 5.4375 0 L 17.796875 0 L 17.796875 -46.171875 Z M 5.4375 -46.171875 "/></g></g></g><g fill="#04a1c4" fill-opacity="1"><g transform="translate(125.294845, 74.631105)"><g><path d="M 17.796875 -36.390625 L 36.53125 -36.390625 L 35.375 -46.109375 L 5.4375 -46.109375 L 5.4375 0 L 17.796875 0 L 17.796875 -17.453125 L 33.140625 -17.453125 L 31.984375 -27.15625 L 17.796875 -27.15625 Z M 17.796875 -36.390625 "/></g></g></g><g fill="#04a1c4" fill-opacity="1"><g transform="translate(168.283712, 74.631105)"><g><path d="M 36.46875 0 L 48.828125 0 L 48.828125 -46.171875 L 40.609375 -46.171875 L 27.84375 -28.59375 L 13.921875 -46.171875 L 5.4375 -46.171875 L 5.4375 0 L 17.796875 0 L 17.796875 -22.34375 L 25.265625 -13.234375 L 30.21875 -13.921875 L 36.46875 -22.34375 Z M 36.46875 0 "/></g></g></g><g fill="#04a1c4" fill-opacity="1"><g transform="translate(227.639579, 74.631105)"><g><path d="M 12.96875 0 L 16.15625 -9.09375 L 32.125 -9.09375 L 35.453125 0.671875 L 47.609375 -0.546875 L 30.359375 -46.171875 L 18 -46.171875 L 0.671875 0 Z M 23.96875 -31.375 L 28.59375 -18.8125 L 19.5625 -18.8125 Z M 23.96875 -31.375 "/></g></g></g><g fill="#04a1c4" fill-opacity="1"><g transform="translate(281.019096, 74.631105)"><g><path d="M 17.796875 0 L 17.796875 -14.53125 L 26.015625 -14.53125 L 33.484375 0 L 47.8125 0 L 37.625 -18.203125 C 39.570312 -19.515625 41.097656 -21.195312 42.203125 -23.25 C 43.316406 -25.3125 43.875 -27.703125 43.875 -30.421875 C 43.875 -35.671875 42.082031 -39.609375 38.5 -42.234375 C 34.925781 -44.859375 30.378906 -46.171875 24.859375 -46.171875 L 5.4375 -46.171875 L 5.4375 0 Z M 24.453125 -36.46875 C 26.578125 -36.46875 28.210938 -35.957031 29.359375 -34.9375 C 30.515625 -33.914062 31.09375 -32.410156 31.09375 -30.421875 C 31.09375 -28.609375 30.484375 -27.125 29.265625 -25.96875 C 28.046875 -24.820312 26.484375 -24.25 24.578125 -24.25 L 17.796875 -24.25 L 17.796875 -36.46875 Z M 24.453125 -36.46875 "/></g></g></g><g fill="#04a1c4" fill-opacity="1"><g transform="translate(334.602371, 74.631105)"><g><path d="M 0.671875 -36.46875 L 14.265625 -36.46875 L 14.265625 0 L 26.625 0 L 26.625 -36.46875 L 41.359375 -36.46875 L 40.203125 -46.171875 L 0.671875 -46.171875 Z M 0.671875 -36.46875 "/></g></g></g></g></g></svg>